<svg xmlns="http://www.w3.org/2000/svg" xmlns:xlink="http://www.w3.org/1999/xlink" xmlns:inkscape="http://www.inkscape.org/namespaces/inkscape" version="1.1" width="130.5" height="130.5" viewBox="0 0 130.5 130.5">
<defs>
<clipPath id="clip_0">
<path transform="matrix(.24,0,0,.24,0,0)" d="M0 0H543.75V543.75H0Z" clip-rule="evenodd"/>
</clipPath>
<clipPath id="clip_1">
<path transform="matrix(.24,0,0,.24,0,0)" d="M0 0H543.75V543.75H0Z"/>
</clipPath>
<clipPath id="clip_2">
<path transform="matrix(.24,0,0,.24,0,0)" d="M0 0H543.75V543.75H0Z"/>
</clipPath>
<clipPath id="clip_3">
<path transform="matrix(.24,0,0,.24,0,0)" d="M0 0H540.8254V540.8254H0Z"/>
</clipPath>
<clipPath id="clip_4">
<path transform="matrix(.24,0,0,.24,0,0)" d="M270.4127 0C121.06789 0 0 121.06789 0 270.4127 0 419.75749 121.06789 540.8254 270.4127 540.8254 419.75749 540.8254 540.8254 419.75749 540.8254 270.4127 540.8254 121.06789 419.75749 0 270.4127 0Z"/>
</clipPath>
<clipPath id="clip_5">
<path transform="matrix(.24,0,0,.24,0,0)" d="M297.35356 319.46388H484.85356V444.46388H297.35356Z" clip-rule="evenodd"/>
</clipPath>
<clipPath id="clip_6">
<path transform="matrix(.24,0,0,.24,0,0)" d="M45.903203 83.584339H370.9032V405.45936H45.903203Z" clip-rule="evenodd"/>
</clipPath>
</defs>
<g clip-path="url(#clip_0)">
<path transform="matrix(.75,0,0,.75,0,0)" d="M0 0H174V174H0Z" fill="#ffffff"/>
</g>
<g clip-path="url(#clip_1)">
<g clip-path="url(#clip_2)">
<g clip-path="url(#clip_3)">
<g clip-path="url(#clip_4)">
<path transform="matrix(.50702378,0,0,.50702378,0,0)" d="M0 0H256V256H0Z" fill="#0097b2"/>
</g>
</g>
</g>
</g>
<g clip-path="url(#clip_5)">
<path transform="matrix(.034355526,0,0,.034355526,51.558889,49.654195)" d="M1062.0508 1230.3711 576.46487 861.23049V1599.4883L1062.0508 1230.3711Z" fill="#fcfbfc"/>
<path transform="matrix(.034355526,0,0,.034355526,51.558889,49.654195)" d="M1261.2344 1275.0703 1862.5859 801.76956C1853.6836 792.33206 1841.1016 786.3906 1827.2852 786.3906H625.21878C610.46487 786.3906 597.4375 793.08596 588.41018 803.4258L1209.582 1275.5313C1223.2149 1285.918 1247.793 1285.7109 1261.2344 1275.0703" fill="#fcfbfc"/>
<path transform="matrix(.034355526,0,0,.034355526,51.558889,49.654195)" d="M1294.1992 1316.9727C1277.6602 1329.9414 1256.3711 1336.4609 1235.0117 1336.4609 1214.293 1336.4609 1193.6406 1330.293 1177.3672 1317.9727L1106.0899 1263.8399 593.0703 1653.7617C601.71487 1661.3594 612.8672 1666.1133 625.21487 1666.1133H1827.2734C1838.7734 1666.1133 1849.3164 1661.8906 1857.7266 1655.1602L1361.0859 1264.25 1294.1992 1316.9727" fill="#fcfbfc"/>
<path transform="matrix(.034355526,0,0,.034355526,51.558889,49.654195)" d="M1876.0313 1601.7891V858.97659L1404.1602 1230.4102 1876.0313 1601.7891" fill="#fcfbfc"/>
</g>
<g clip-path="url(#clip_6)">
<path transform="matrix(.15251796,0,0,.15251796,11.485906,20.74657)" d="M478.6 148.5C436.4 53.7 342.1-4.5 238.2 .3 110.7 6.1 6.1 110.7 .3 238.2-2.9 307.3 21.599999 372.8 69.200008 422.59999 116.8 472.5 181 500 250 500 284.7 500 318.3 493 349.9 479.3L369.69999 470.69999 352.49998 431.19999 332.69999 439.8C306.59999 451.19999 278.8 456.9 250.09998 456.9 192.99997 456.9 139.89998 434.19999 100.49997 392.9 61.099969 351.6 40.89997 297.4 43.49997 240.2 48.39997 134.7 134.79998 48.199998 240.29998 43.399995 326.19999 39.499994 404.3 87.59999 439.19996 166.09999 462.79997 219.09999 452.39997 281.4 413.39997 321 400.89997 333.7 386.79997 343 371.39997 348.8 362.49998 352.09999 355.59999 348 352.99998 346.09999 350.39997 344.09999 344.39997 338.49998 345.19999 328.8L350.49998 262 361.29997 125.100009 318.29997 121.700008 315.89997 151.6C297.89997 131.40001 274.09999 118.200008 247.29996 116.100009 184.49996 111.200008 128.49996 168.6 122.59996 244.1 119.79996 279.80003 128.39997 314.5 146.89997 341.7 166.39997 370.40003 194.39997 387.6 225.79996 390 228.29996 390.2 230.79996 390.3 233.29996 390.3 261.29997 390.3 287.59996 378 308.09999 357.5 312.39997 366.4 318.8 374.4 326.99998 380.6 344.09999 393.5 366.29997 396.80003 386.39997 389.30003 407.69996 381.40003 427.09999 368.6 444.09999 351.40003 496.2 298.2 509.7 218.7 478.6 148.5ZM229.1 346.8C211.1 345.4 194.5 334.9 182.5 317.19999 169.5 298.09999 163.5 273.19999 165.5 247.19998 169.4 197.29999 202.2 158.69998 239.6 158.69998 241 158.69998 242.40001 158.79999 243.90001 158.89998 283 161.99999 311.5 206.59998 307.5 258.39997V258.49998C303.4 310.3 268.2 349.9 229.1 346.8Z" fill="#fcfbfc"/>
</g>
</svg>
