<svg xmlns="http://www.w3.org/2000/svg" xmlns:xlink="http://www.w3.org/1999/xlink"
  xmlns:inkscape="http://www.inkscape.org/namespaces/inkscape" version="1.1" width="400" height="400"
  viewBox="270 5 200 370">
  <defs>
    <clipPath id="clip_0">
      <path transform="matrix(.0,0,0,.24,0,0)" d="M0 0H3090.625V1612.5H0Z" clip-rule="evenodd" />
    </clipPath>
    <clipPath id="clip_1">
      <path transform="matrix(.24,0,0,.24,0,0)" d="M0 0H3090.625V1612.5H0Z" clip-rule="evenodd" />
    </clipPath>
    <clipPath id="clip_2">
      <path transform="matrix(.24,0,0,.24,0,0)" d="M0 0H3090.625V1612.5H0Z" />
    </clipPath>
    <clipPath id="clip_3">
      <path transform="matrix(.24,0,0,.24,0,0)" d="M0 0H3090.625V1612.5H0Z" />
    </clipPath>
    <clipPath id="clip_4">
      <path transform="matrix(.24,0,0,.24,0,0)"
        d="M812.611 592.181 1233.6646 631.6012 1205.899 928.1693 784.8456 888.74917 812.611 592.181Z" />
    </clipPath>
    <clipPath id="clip_5">
      <path transform="matrix(.24,0,0,.24,0,0)"
        d="M1040.5685 622.97677 1204.9306 902.62C1207.9728 907.796 1207.86 914.23989 1204.6383 919.30618 1201.4168 924.3725 1195.6292 927.20779 1189.6514 926.64816L801.31417 890.29098C795.3364 889.7313 790.17568 885.871 787.95046 880.29476 785.7253 874.7185 786.8105 868.36569 790.76058 863.84439L1004.1733 619.56936C1008.93777 614.1159 1016.03286 611.28457 1023.2428 611.9596 1030.4529 612.63467 1036.899 616.7337 1040.5685 622.97677Z" />
    </clipPath>
    <clipPath id="clip_6">
      <path transform="matrix(.24,0,0,.24,0,0)" d="M0 0H3090.625V1612.5H0Z" clip-rule="evenodd" />
    </clipPath>
    <clipPath id="clip_7">
      <path transform="matrix(.24,0,0,.24,0,0)" d="M0 0H3090.625V1612.5H0Z" />
    </clipPath>
    <clipPath id="clip_8">
      <path transform="matrix(.24,0,0,.24,0,0)" d="M0 0H3090.625V1612.5H0Z" />
    </clipPath>
    <clipPath id="clip_9">
      <path transform="matrix(.24,0,0,.24,0,0)"
        d="M1736.3014 66.94859 1695.7247 487.8922 1399.234 459.31214 1439.8107 38.36854 1736.3014 66.94859Z" />
    </clipPath>
    <clipPath id="clip_10">
      <path transform="matrix(.24,0,0,.24,0,0)"
        d="M1704.8795 294.82054 1424.7859 458.41383C1419.6015 461.44184 1413.158 461.3113 1408.1006 458.07579 1403.0431 454.84028 1400.2238 449.0449 1400.7998 443.06874L1438.2236 54.83284C1438.7996 48.85669 1442.6741 43.706556 1448.2565 41.496667 1453.8389 39.28678 1460.1886 40.389436 1464.6991 44.351964L1708.387 258.43489C1713.8273 263.2143 1716.639 270.3171 1715.9442 277.52525 1715.2494 284.73338 1711.1327 291.16835 1704.8795 294.82054Z" />
    </clipPath>
    <clipPath id="clip_11">
      <path transform="matrix(.24,0,0,.24,0,0)" d="M0 0H3090.625V1612.5H0Z" clip-rule="evenodd" />
    </clipPath>
    <clipPath id="clip_12">
      <path transform="matrix(.24,0,0,.24,0,0)" d="M0 0H3090.625V1612.5H0Z" />
    </clipPath>
    <clipPath id="clip_13">
      <path transform="matrix(.24,0,0,.24,0,0)" d="M0 0H3090.625V1612.5H0Z" />
    </clipPath>
    <clipPath id="clip_14">
      <path transform="matrix(.24,0,0,.24,0,0)"
        d="M2304.385 948.6722 1881.6873 935.76388 1890.7792 638.03768 2313.4769 650.946 2304.385 948.6722Z" />
    </clipPath>
    <clipPath id="clip_15">
      <path transform="matrix(.24,0,0,.24,0,0)"
        d="M2074.9439 932.24856 1893.3499 663.4757C1889.9887 658.5009 1889.6967 652.06277 1892.5939 646.80416 1895.4911 641.54556 1901.0892 638.35256 1907.0903 638.53579L2296.944 650.4411C2302.945 650.6244 2308.338 654.1531 2310.909 659.5786 2313.4798 665.00418 2312.7957 671.41256 2309.137 676.173L2111.4813 933.3643C2107.0684 939.10617 2100.165 942.37728 2092.927 942.15628 2085.6888 941.9352 2078.998 938.2489 2074.9439 932.24856Z" />
    </clipPath>
    <clipPath id="clip_16">
      <path transform="matrix(.24,0,0,.24,0,0)" d="M0 0H3090.625V1612.5H0Z" clip-rule="evenodd" />
    </clipPath>
    <clipPath id="clip_17">
      <path transform="matrix(.24,0,0,.24,0,0)" d="M0 0H3090.625V1612.5H0Z" />
    </clipPath>
    <clipPath id="clip_18">
      <path transform="matrix(.24,0,0,.24,0,0)" d="M0 0H3090.625V1612.5H0Z" />
    </clipPath>
    <clipPath id="clip_19">
      <path transform="matrix(.24,0,0,.24,0,0)"
        d="M1411.1731 1560.0841 1380.5733 1138.2979 1677.6575 1116.745 1708.2573 1538.5311 1411.1731 1560.0841Z" />
    </clipPath>
    <clipPath id="clip_20">
      <path transform="matrix(.24,0,0,.24,0,0)"
        d="M1403.9306 1330.17 1652.6182 1121.9161C1657.2212 1118.0615 1663.5953 1117.1095 1669.1238 1119.4509 1674.6524 1121.7924 1678.4038 1127.0327 1678.8381 1133.0209L1707.0604 1522.0339C1707.4949 1528.022 1704.5391 1533.749 1699.4064 1536.8639 1694.2738 1539.9788 1687.829 1539.9568 1682.7178 1536.8069L1406.5755 1366.6286C1400.4107 1362.8292 1396.4474 1356.2986 1395.9234 1349.076 1395.3994 1341.8535 1398.3786 1334.8192 1403.9306 1330.17Z" />
    </clipPath>
    <clipPath id="clip_21">
      <path transform="matrix(.24,0,0,.24,0,0)" d="M0 0H3090.625V1612.5H0Z" clip-rule="evenodd" />
    </clipPath>
  </defs>
  <g clip-path="url(#clip_0)">
    <path transform="matrix(.75,0,0,.75,0,0)" d="M0 0H989V516H0Z" fill="#ffffff" />
  </g>
  <g clip-path="url(#clip_1)">
    <path transform="matrix(.5088794,-.5509462,.5509462,.5088794,180.21462,171.55268)" stroke-width="62"
      stroke-linecap="butt" stroke-miterlimit="4" stroke-linejoin="miter" fill="none" stroke="#ff3131"
      d="M20.100832 87.9811C109.30111 12.0063 198.50139 12.0063 287.70167 87.9811" />
  </g>
  <g clip-path="url(#clip_2)">
    <g clip-path="url(#clip_3)">
      <g clip-path="url(#clip_4)">
        <g clip-path="url(#clip_5)">
          <path transform="matrix(.29290677,.027422715,-.027422715,.29290677,191.86826,137.98657)" d="M0 0H369V256H0Z"
            fill="#008632" />
        </g>
      </g>
    </g>
  </g>
  <g clip-path="url(#clip_6)">
    <path transform="matrix(.5499869,.50991609,-.50991609,.5499869,394.21974,-.0010380283)" stroke-width="62"
      stroke-linecap="butt" stroke-miterlimit="4" stroke-linejoin="miter" fill="none" stroke="#04437b"
      d="M20.198233 87.9811C108.65501 12.0063 197.11177 12.0063 285.56855 87.9811" />
  </g>
  <g clip-path="url(#clip_7)">
    <g clip-path="url(#clip_8)">
      <g clip-path="url(#clip_9)">
        <g clip-path="url(#clip_10)">
          <path transform="matrix(-.028227214,.29283033,-.29283033,-.028227214,420.85783,12.920652)" d="M0 0H369V256H0Z"
            fill="#ff3131" />
        </g>
      </g>
    </g>
  </g>
  <g clip-path="url(#clip_11)">
    <path transform="matrix(-.4213147,.6204788,-.6204788,-.4213147,565.73367,185.66089)" stroke-width="62"
      stroke-linecap="butt" stroke-miterlimit="4" stroke-linejoin="miter" fill="none" stroke="#f5a500"
      d="M20.198233 87.9811C108.65501 12.0063 197.11177 12.0063 285.56855 87.9811" />
  </g>
  <g clip-path="url(#clip_12)">
    <g clip-path="url(#clip_13)">
      <g clip-path="url(#clip_14)">
        <g clip-path="url(#clip_15)">
          <path transform="matrix(-.29405055,-.008979689,.008979689,-.29405055,556.46426,231.61173)" d="M0 0H369V256H0Z"
            fill="#04437b" />
        </g>
      </g>
    </g>
  </g>
  <g clip-path="url(#clip_16)">
    <path transform="matrix(-.5721121,-.4849615,.4849615,-.5721121,358.89244,386.34196)" stroke-width="62"
      stroke-linecap="butt" stroke-miterlimit="4" stroke-linejoin="miter" fill="none" stroke="#008632"
      d="M20.198233 87.9811C108.65501 12.0063 197.11177 12.0063 285.56855 87.9811" />
  </g>
  <g clip-path="url(#clip_17)">
    <g clip-path="url(#clip_18)">
      <g clip-path="url(#clip_19)">
        <g clip-path="url(#clip_20)">
          <path transform="matrix(-.02128685,-.2934165,.2934165,-.02128685,335.12257,378.2179)" d="M0 0H369V256H0Z"
            fill="#f5a500" />
        </g>
      </g>
    </g>
  </g>
  <g clip-path="url(#clip_21)">
    <text fill="#007d96" xml:space="preserve" transform="matrix(.75 0 0 .75 288.67289 154.78635)" font-size="72"
      font-family="Segoe UI" font-weight="bold">
      <tspan y="70" x="0 46.459474 87 111.38275 144.4443 185.50463">Kaizen</tspan>
    </text>
    <text fill="#ff3131" xml:space="preserve" transform="matrix(.75 0 0 .75 180 16.7099)" font-size="90"
      font-family="Segoe UI" font-weight="bold">
      <tspan y="90" x="40">P</tspan>
    </text>
    <text fill="#04437b" xml:space="preserve" transform="matrix(.75 0 0 .75 461.5127 16.7099)" font-size="90"
      font-family="Segoe UI" font-weight="bold">
      <tspan y="90" x="-180">
        D</tspan>
    </text>
    <text fill="#f5a500" xml:space="preserve" transform="matrix(.75 0 0 .75 515.47756 306.5997)" font-size="90"
      font-family="Segoe UI" font-weight="bold">
      <tspan y="55" x="-250">
        C</tspan>
    </text>
    <text fill="#008632" xml:space="preserve" transform="matrix(.75 0 0 .75 19.116 306.5997)" font-size="90"
      font-family="Segoe UI" font-weight="bold">
      <tspan y="50" x="25">
        A</tspan>
    </text>
  </g>
</svg>