<svg xmlns="http://www.w3.org/2000/svg" xmlns:xlink="http://www.w3.org/1999/xlink"
  xmlns:inkscape="http://www.inkscape.org/namespaces/inkscape" version="1.1" width="400" height="250"
  viewBox="22 0 155 90">
  <defs>
    <clipPath id="clip_0">
      <path transform="matrix(.0,0,0,.24,0,0)" d="M0 0H887.5V381.25H0Z" clip-rule="evenodd" />
    </clipPath>
    <clipPath id="clip_1">
      <path transform="matrix(.24,0,0,.24,0,0)" d="M0 0H887.5V381.25H0Z" clip-rule="evenodd" />
    </clipPath>
    <clipPath id="clip_2">
      <path transform="matrix(.24,0,0,.24,54.239999,0)" d="M0 0H381V382H0Z" clip-rule="evenodd" />
    </clipPath>
    <clipPath id="clip_3">
      <path transform="matrix(.24,0,0,.24,54.239999,0)" d="M.20661927-.00000000000019984015H381.4566V381.25H.20661927Z"
        clip-rule="evenodd" />
    </clipPath>
  </defs>
  <g>
    <g clip-path="url(#clip_0)">
      <path transform="matrix(.75,0,0,.75,0,0)" d="M0 0H284V122H0Z" fill="#ffffff" />
    </g>
    <g clip-path="url(#clip_1)">
      <g opacity=".53">
        <g clip-path="url(#clip_2)">
          <g clip-path="url(#clip_3)">
            <path transform="matrix(.19016114,0,0,.19016114,51.247007,-3.0425783)"
              d="M425.70576 86.29426C380.3754 40.96444 320.1063 15.99993 256.00004 15.99993 191.89377 15.99993 131.62468 40.96444 86.29433 86.29425 40.96451 131.6246 16 191.8937 16 255.99997 16 320.10624 40.964509 380.3753 86.29432 425.7057 131.62468 471.03553 191.89377 496.00007 256.00004 496.00007 320.1063 496.00007 380.37538 471.0355 425.70576 425.7057 471.0355 380.37535 496 320.10624 496 255.99999 496 191.89374 471.0355 131.62464 425.70576 86.29428V86.29426ZM42.54528 255.99997C42.54528 229.27019 47.49828 203.67928 56.51089 180.07764H142.83826C138.96688 204.23198 136.94596 229.8025 136.94596 255.99997 136.94596 281.3183 138.82741 306.05583 142.44814 329.49095H55.58481C47.152639 306.56809 42.54528 281.81217 42.54528 255.99997ZM163.49121 255.99997C163.49121 229.63292 165.63149 204.02297 169.72202 180.07764H242.72739V329.49098H169.30966C165.48554 306.24726 163.4912 281.4754 163.4912 256L163.49121 255.99997ZM318.77073 101.29132C326.05039 116.89393 332.08503 134.49459 336.77516 153.53235H269.2727V45.0046C287.26823 51.60386 304.7811 71.3059 318.77076 101.29132H318.77073ZM242.72742 45.0046V153.53235H175.22496C179.91509 134.49459 185.9497 116.89393 193.22939 101.29132 207.21903 71.3059 224.73192 51.60385 242.72742 45.0046ZM242.72742 356.03623V466.99537C224.7319 460.3961 207.21903 440.69407 193.22937 410.70866 185.64112 394.44474 179.40816 376.00724 174.6385 356.03627H242.7274L242.72742 356.03623ZM269.2727 466.99537V356.03623H337.3616C332.59196 376.00724 326.35899 394.4447 318.77076 410.70863 304.7811 440.69404 287.26823 460.3961 269.2727 466.99534V466.99537ZM269.2727 329.49098V180.07764H342.27809C346.3686 204.02298 348.50889 229.63294 348.50889 255.99997 348.50889 281.47538 346.51457 306.2472 342.69044 329.49095H269.2727V329.49098ZM369.16184 180.07765H455.4892C464.5018 203.6793 469.45475 229.2702 469.45475 256 469.45475 281.8122 464.84745 306.5681 456.41529 329.49098H369.55198C373.1727 306.05586 375.05415 281.31834 375.05415 256 375.05415 229.80254 373.0332 204.232 369.16184 180.07767V180.07765ZM443.20307 153.53238H364.02766C358.73698 130.35198 351.62174 108.91815 342.82685 90.06772 336.00596 75.44836 328.3807 62.850328 320.12055 52.390619 372.94013 69.06114 416.948 105.756809 443.20307 153.53238ZM191.87953 52.39059C183.61937 62.8503 175.99413 75.44833 169.17325 90.06769 160.37836 108.91812 153.26314 130.35195 147.97246 153.53235H68.79703C95.052089 105.756778 139.05997 69.06112 191.87955 52.390588L191.87953 52.39059ZM67.48717 356.03623H147.41727C152.7602 380.15306 160.07086 402.42268 169.17325 421.93226 175.99414 436.5516 183.61939 449.14964 191.87953 459.60935 138.1683 442.65745 93.57325 404.99595 67.48716 356.03623H67.48717ZM320.12055 459.60935C328.3807 449.14964 336.00596 436.5516 342.82685 421.93226 351.92924 402.42268 359.2399 380.153 364.58283 356.03623H444.51295C418.42686 404.99595 373.8318 442.65748 320.12059 459.60935H320.12055Z"
              fill="#f5a500" />
          </g>
        </g>
      </g>
      <text fill="#383b3a" xml:space="preserve" transform="matrix(.75 0 0 .75 69.89854 38.01419)" font-size="16.02"
        font-family="Segoe UI" font-weight="bold">
        <tspan y="15" x=".015625 11.578842 17.808884 29.3721 40.935319 52.498537 67.6172">SISTEMA</tspan>
      </text>
      <text fill="#007d96" xml:space="preserve" transform="matrix(.75 0 0 .75 118.25581 63.489953)" font-size="14.29"
        font-family="Segoe UI" font-weight="bold">
        <tspan y="14" x=".015625 11.12645 15.882111 20.637772 30.163376 39.68898 46.02986">Clientes</tspan>
      </text>
      <text fill="#007d96" xml:space="preserve" transform="matrix(.75 0 0 .75 29.28806 63.489953)" font-size="14.29"
        font-family="Segoe UI" font-weight="bold">
        <tspan y="14" x=".015625 11.12645 20.652054 34.933336 44.45894 53.984544 63.510149">Demanda</tspan>
      </text>
      <text fill="#007d96" xml:space="preserve" transform="matrix(.75 0 0 .75 30.465367 11.7641949)" font-size="14.29"
        font-family="Segoe UI" font-weight="bold">
        <tspan y="14" x=".015625 10.326706 19.052567 25.393448 34.919054 44.444658 53.97026">Estoque</tspan>
      </text>
      <text fill="#007d96" xml:space="preserve" transform="matrix(.75 0 0 .75 119.43941 12.538442)" font-size="14.29"
        font-family="Segoe UI" font-weight="bold">
        <tspan y="14" x=".015625 11.12645 20.652054 29.377915 35.718797 45.2444">Custos</tspan>
      </text>
      <text fill="#007d96" xml:space="preserve" transform="matrix(.75 0 0 .75 135.71164 38.1441)" font-size="14.29"
        font-family="Segoe UI" font-weight="bold">
        <tspan y="14"
          x=".03125 9.185318 18.467988 24.808869 34.334474 40.91829 50.443895 64.725177 74.25078 83.77638 -8.11726">
          Técnicos</tspan>
      </text>
      <text fill="#007d96" xml:space="preserve" transform="matrix(.75 0 0 .75 2.2730003 38.1441)" font-size="14.29"
        font-family="Segoe UI" font-weight="bold">
        <tspan y="14" x=".015625 11.54039 16.296051 -3.051712">
          Servi&#x00e7;os</tspan>
      </text>
    </g>
  </g>
</svg>