<svg xmlns="http://www.w3.org/2000/svg" xmlns:xlink="http://www.w3.org/1999/xlink"
  xmlns:inkscape="http://www.inkscape.org/namespaces/inkscape" version="1.1" width="400" height="300"
  viewBox="-9 5 103 66">
  <defs>
    <clipPath id="clip_0">
      <path transform="matrix(.0,0,0,.24,0,0)" d="M0 0H362.5V321.875H0Z" clip-rule="evenodd" />
    </clipPath>
    <clipPath id="clip_1">
      <path transform="matrix(.24,0,0,.24,0,0)" d="M0 0H362.5V321.875H0Z" clip-rule="evenodd" />
    </clipPath>
    <clipPath id="clip_2">
      <path transform="matrix(.24,0,0,.24,5.7599999,0)" d="M0 0H313V322H0Z" clip-rule="evenodd" />
    </clipPath>
    <clipPath id="clip_3">
      <path transform="matrix(.24,0,0,.24,5.7599999,0)" d="M.36705018 .0000000000005107026H312.86708V318.75H.36705018Z"
        clip-rule="evenodd" />
    </clipPath>
  </defs>
  <g>
    <g clip-path="url(#clip_0)">
      <path transform="matrix(.75,0,0,.75,0,0)" d="M0 0H116V103H0Z" fill="#ffffff" />
    </g>
    <g clip-path="url(#clip_1)">
      <g opacity=".39">
        <g clip-path="url(#clip_2)">
          <g clip-path="url(#clip_3)">
            <path transform="matrix(.051476133,0,0,.050999997,5.8528769,.00000000000012256862)"
              d="M337.0327 682.9614 352.40043 803.8322H451.48393L466.85453 682.9614C498.40583 675.6837 527.96786 663.208 554.6367 646.48318L651.09817 721.1572 721.1616 651.09378 646.4868 554.67709C663.2124 528.0082 675.687 498.40037 682.9673 466.84947L803.836 451.48036V352.44227L682.9673 337.02848C675.687 305.47718 663.2124 275.86979 646.4868 249.20008L721.1616 152.73868 651.0981 82.675 554.63668 157.3941C527.9678 140.6242 498.40568 128.1481 466.85447 120.870807L451.4839 0H352.4004L337.03269 120.870807C305.48728 128.1467 275.88719 140.61911 249.21968 157.3842L152.77729 82.702808 82.72258 152.7308 157.38718 249.2212C140.62348 275.885 128.15038 305.4851 120.87598 337.02833 120.87598 337.02983 120.87598 337.03053 120.87447 337.032L0 352.4231V451.4751L120.8804 466.8666C128.1577 498.4072 140.6309 527.9605 157.39459 554.6228L82.722698 651.1216 152.7774 721.1499 249.20221 646.4821C249.20221 646.48257 249.20221 646.48257 249.2037 646.4832 275.874 663.208 305.4814 675.6837 337.0327 682.9614ZM244.5952 401.9385C244.5952 315.19563 315.1992 244.5894 401.9414 244.5894 488.68653 244.5894 559.248 315.19563 559.248 401.9385 559.248 488.6822 488.6865 559.2426 401.9414 559.2426 315.1992 559.2426 244.5952 488.6821 244.5952 401.9385Z"
              fill="#a4b9fb" />
            <path transform="matrix(.051476133,0,0,.050999997,5.8528769,.00000000000012256862)"
              d="M1048.3814 917.5236 929.81686 946.1364C912.3222 919.9644 890.4447 896.4592 864.6342 876.8863L900.1186 760.31 809.7582 719.7635 746.20449 823.7286C727.62588 820.0672 708.9125 818.25918 690.33389 818.30429 677.17959 818.30429 664.07217 819.2535 651.14346 821.0619 651.1419 821.0619 651.1405 821.06259 651.13906 821.06259L593.74508 713.4493 501.15815 748.64797 529.7548 867.2285C503.55464 884.7129 480.06443 906.5771 460.5014 932.414L343.9101 896.9509 303.3471 987.3164 407.36573 1050.8848C401.08744 1082.6463 400.31834 1114.7245 404.65284 1145.8997L297.06153 1203.3322 332.29103 1295.9063 450.83644 1267.2744C450.84083 1267.2825 450.84675 1267.2905 450.85255 1267.2986 468.34574 1293.471 490.22465 1316.9308 515.98977 1336.5033 515.9971 1336.5099 516.0073 1336.5161 516.01467 1336.5227L480.55665 1453.1005 570.9213 1493.6635 634.47946 1389.6643C652.9174 1393.3685 671.4462 1395.1307 689.88278 1395.1307H690.3339C703.4882 1395.1307 716.5517 1394.1812 729.47897 1392.3735L786.9316 1500 879.50527 1464.7874 850.8486 1346.1314C877.021 1328.7286 900.5713 1306.8505 920.14297 1281.0403L1036.6742 1316.4785 1077.265 1226.1193 973.3006 1162.5652C979.5833 1130.7876 980.3069 1098.7394 975.9681 1067.5496L1083.5946 1010.09768 1048.3814 917.5236ZM625.8765 1250.2573C546.77206 1214.7283 511.28764 1121.4309 546.77206 1042.2817 572.8975 984.10629 630.3062 949.4813 690.33407 949.39089H690.56118C712.0314 949.39089 733.9089 953.82058 754.7477 963.178 813.05868 989.3496 847.6393 1046.8469 847.6393 1106.9663 847.6393 1128.4373 843.2096 1150.3154 833.8522 1171.1536 807.72518 1229.3287 750.3634 1263.9536 690.3341 1264.0441 668.7275 1264.0441 646.8047 1259.6594 625.8765 1250.2573Z"
              fill="#1986cf" />
            <path transform="matrix(.051476133,0,0,.050999997,5.8528769,.00000000000012256862)"
              d="M1361.4082 748.9189C1369.9058 732.4654 1376.3687 715.10739 1380.7544 697.1169 1380.7559 697.11288 1380.7559 697.10848 1380.7573 697.1044L1456.815 681.30087 1453.2598 582.3129 1376.2368 572.00448C1376.2354 572.00228 1376.2354 571.9993 1376.2339 571.99716 1370.6294 554.32308 1362.9448 537.4627 1353.2256 521.687 1353.2256 521.6866 1353.2256 521.68637 1353.2256 521.68637L1395.8701 456.67366 1323.3604 389.19306 1261.5879 436.38377C1245.1377 427.88917 1227.7852 421.42738 1209.7998 417.08888L1193.978 340.96788 1155.2402 342.36936 1094.9854 344.53916 1084.6787 421.51856C1067.0039 427.16886 1050.1436 434.85337 1034.3233 444.52647L969.36917 401.90098 901.88088 474.40528 949.07229 536.1968C940.57327 552.65029 934.06497 570.0534 929.7261 588.04379L853.60549 603.86477 857.17678 702.8574 934.29196 713.1637C939.851 730.8374 947.58108 747.6985 957.20797 763.4738L914.58248 828.4748 987.1318 895.9166 1048.8794 848.7252C1065.3325 857.2689 1082.6909 863.73257 1100.6807 868.07217L1116.5025 944.14736 1155.2402 942.7462 1215.4951 940.5764 1225.8003 863.59707C1243.4297 857.9465 1260.3355 850.2626 1276.1104 840.5892 1276.1133 840.587 1276.1177 840.58438 1276.1206 840.58218L1341.1084 883.2106 1408.5894 810.70077 1361.4009 748.9313C1361.4024 748.927 1361.4053 748.9233 1361.4082 748.9189ZM1229.0098 711.2655C1210.7022 730.9739 1185.7515 742.3645 1158.8555 743.3137 1157.6353 743.35916 1156.4605 743.35916 1155.2402 743.35916 1129.6553 743.4041 1105.3359 733.9116 1086.5317 716.3734 1066.8237 698.0207 1055.4331 673.1147 1054.4839 646.17416 1053.5347 619.2788 1063.0723 593.6038 1081.4238 573.8958 1099.7769 554.1878 1124.6836 542.7964 1151.625 541.8018 1152.7984 541.75717 1154.064 541.75717 1155.2402 541.75717 1155.2842 541.75717 1155.2842 541.75717 1155.3296 541.75717 1180.8692 541.75717 1205.0977 551.2493 1223.9019 568.74258 1243.6099 587.09487 1255.002 612.04666 1255.9951 638.94186 1256.9443 665.837 1247.3628 691.5121 1229.0098 711.2655Z" />
          </g>
        </g>
      </g>
      <text fill="#0097b2" xml:space="preserve" transform="matrix(.74996235 0 0 .74996235 5.848092 6.5744469)"
        font-size="36.78" font-family="Segoe UI" font-weight="bold">
        <tspan y="37" x=".015625">W</tspan>
      </text>
      <text fill="#f5a500" xml:space="preserve" transform="matrix(.74996235 0 0 .74996235 5.848092 6.5744469)"
        font-size="36.78" font-family="Segoe UI" font-weight="bold">
        <tspan y="37" x="36.15625">C</tspan>
      </text>
      <text fill="#3f4748" xml:space="preserve" transform="matrix(.74996235 0 0 .74996235 5.848092 6.5744469)"
        font-size="36.78" font-family="Segoe UI" font-weight="bold">
        <tspan y="37" x="64.765628">M</tspan>
      </text>
      <text fill="#0097b2" xml:space="preserve" transform="matrix(.75 0 0 .75 -50.654813 39.41245)" font-size="13.37"
        font-family="Segoe UI" font-weight="bold">
        <tspan y="13"
          x="9.578125 22.589814 31.500473 37.873216 42.32187 51.23253 55.681184 66.07472 70.52338 79.43404 87.1">
          World Class</tspan>
      </text>
      <text fill="#0097b2" xml:space="preserve" transform="matrix(.72 0 0 .75 -52.654813 37.41245)" font-size="13.37"
        font-family="Segoe UI" font-weight="bold">
        <tspan y="31"
          x=".03125 12.642441 21.5531 30.46376 39.37442 44.4375 53.34816 62.25882 68.19035 77.10101 83.03255 87.4812">
          Manufacturing</tspan>
      </text>
    </g>
  </g>
</svg>